<?xml version="1.0" encoding="UTF-8" standalone="no"?>
<!-- Created with Inkscape (http://www.inkscape.org/) -->

<svg
   version="1.1"
   id="svg2"
   width="666.66699"
   height="50"
   viewBox="0 0 666.667 50"
   sodipodi:docname="divider.svg"
   inkscape:version="1.4 (86a8ad7, 2024-10-11)"
   xmlns:inkscape="http://www.inkscape.org/namespaces/inkscape"
   xmlns:sodipodi="http://sodipodi.sourceforge.net/DTD/sodipodi-0.dtd"
   xmlns="http://www.w3.org/2000/svg"
   xmlns:svg="http://www.w3.org/2000/svg">
  <defs
     id="defs6">
    <clipPath
       clipPathUnits="userSpaceOnUse"
       id="clipPath18">
      <path
         d="M 0,502.544 H 500 V 0 H 0 Z"
         id="path16" />
    </clipPath>
  </defs>
  <sodipodi:namedview
     id="namedview4"
     pagecolor="#ffffff"
     bordercolor="#000000"
     borderopacity="0.25"
     inkscape:showpageshadow="2"
     inkscape:pageopacity="0.0"
     inkscape:pagecheckerboard="0"
     inkscape:deskcolor="#d1d1d1"
     inkscape:zoom="1.2821784"
     inkscape:cx="159.88415"
     inkscape:cy="258.54436"
     inkscape:window-width="2560"
     inkscape:window-height="1417"
     inkscape:window-x="2552"
     inkscape:window-y="-8"
     inkscape:window-maximized="1"
     inkscape:current-layer="g14" />
  <g
     id="g8"
     inkscape:groupmode="layer"
     inkscape:label="4927767"
     transform="matrix(1.3333333,0,0,-1.3333333,0,670.05867)">
    <g
       id="g12"
       transform="translate(-6.204247,44.256961)">
      <g
         id="g14"
         clip-path="url(#clipPath18)">
        <g
           id="g140"
           transform="translate(254.7744,439.4736)">
          <path
             d="M 0,0 C 0,2.615 -2.12,4.735 -4.735,4.735 -7.35,4.735 -9.47,2.615 -9.47,0 c 0,-2.615 2.12,-4.735 4.735,-4.735 C -2.12,-4.735 0,-2.615 0,0"
             style="fill:#000000;fill-opacity:1;fill-rule:nonzero;stroke:none"
             id="path142" />
        </g>
        <g
           id="g144"
           transform="translate(264.1465,439.4736)">
          <path
             d="m 0,0 c 0,1.591 -1.29,2.88 -2.881,2.88 -1.591,0 -2.88,-1.289 -2.88,-2.88 0,-1.591 1.289,-2.88 2.88,-2.88 C -1.29,-2.88 0,-1.591 0,0"
             style="fill:#000000;fill-opacity:1;fill-rule:nonzero;stroke:none"
             id="path146" />
        </g>
        <g
           id="g148"
           transform="translate(270.6377,439.4736)">
          <path
             d="M 0,0 C 0,0.795 -0.645,1.44 -1.439,1.44 -2.235,1.44 -2.88,0.795 -2.88,0 c 0,-0.795 0.645,-1.44 1.441,-1.44 C -0.645,-1.44 0,-0.795 0,0"
             style="fill:#000000;fill-opacity:1;fill-rule:nonzero;stroke:none"
             id="path150" />
        </g>
        <g
           id="g152"
           transform="translate(431.8926,439.4736)">
          <path
             d="m 0,0 c 0,0.795 -0.645,1.44 -1.44,1.44 -0.795,0 -1.44,-0.645 -1.44,-1.44 0,-0.795 0.645,-1.44 1.44,-1.44 C -0.645,-1.44 0,-0.795 0,0"
             style="fill:#000000;fill-opacity:1;fill-rule:nonzero;stroke:none"
             id="path154" />
        </g>
        <g
           id="g156"
           transform="translate(430.0127,439.4736)">
          <path
             d="M 0,0 H -160.814"
             style="fill:none;stroke:#000000;stroke-width:1.449;stroke-linecap:round;stroke-linejoin:round;stroke-miterlimit:10;stroke-dasharray:none;stroke-opacity:1"
             id="path158" />
        </g>
        <g
           id="g160"
           transform="translate(235.8535,439.4736)">
          <path
             d="M 0,0 C 0,1.591 1.29,2.88 2.88,2.88 4.471,2.88 5.761,1.591 5.761,0 5.761,-1.591 4.471,-2.88 2.88,-2.88 1.29,-2.88 0,-1.591 0,0"
             style="fill:#000000;fill-opacity:1;fill-rule:nonzero;stroke:none"
             id="path162" />
        </g>
        <g
           id="g164"
           transform="translate(229.3618,439.4736)">
          <path
             d="M 0,0 C 0,0.795 0.645,1.44 1.44,1.44 2.235,1.44 2.88,0.795 2.88,0 2.88,-0.795 2.235,-1.44 1.44,-1.44 0.645,-1.44 0,-0.795 0,0"
             style="fill:#000000;fill-opacity:1;fill-rule:nonzero;stroke:none"
             id="path166" />
        </g>
        <g
           id="g168"
           transform="translate(27.45393,439.4736)">
          <path
             d="M 0,0 C 0,0.795 0.645,1.44 1.44,1.44 2.235,1.44 2.88,0.795 2.88,0 2.88,-0.795 2.235,-1.44 1.44,-1.44 0.645,-1.44 0,-0.795 0,0"
             style="fill:#000000;fill-opacity:1;fill-rule:nonzero;stroke:none"
             id="path170" />
        </g>
        <g
           id="g172"
           transform="matrix(1.2447073,0,0,1,29.726232,439.4736)">
          <path
             d="M 0,0 H 160.815"
             style="fill:none;stroke:#000000;stroke-width:1.449;stroke-linecap:round;stroke-linejoin:round;stroke-miterlimit:10;stroke-dasharray:none;stroke-opacity:1"
             id="path174" />
        </g>
      </g>
    </g>
  </g>
</svg>
