<?xml version="1.0" encoding="UTF-8"?>
<!-- Generator: Adobe Illustrator 27.9.0, SVG Export Plug-In . SVG Version: 6.00 Build 0)  -->
<svg version="1.1" id="Layer_1" xmlns="http://www.w3.org/2000/svg" xmlns:xlink="http://www.w3.org/1999/xlink" x="0px" y="0px" viewBox="0 0 216 10.2" style="enable-background:new 0 0 216 10.2;" xml:space="preserve" preserveAspectRatio="none">
<style type="text/css">
	.st0{fill:#CBB887;}
</style>
<path d="M216,3.9L216,3.9L0,3.9l0.1,5.2l0.8-0.7C3.7,5.9,9.3,5,13.4,4.9H175c2.4,0,8.3,0.5,11.3,4.9l0.2,0.4l0.4-0.2  c8.8-4.9,27-5,29-5L216,3.9C216,3.9,216,3.9,216,3.9z M1,7.1l0-2.2h5C4.2,5.4,2.4,6.1,1,7.1z M186.9,8.9c-1.5-2-3.6-3.3-5.7-4h20  C196.1,5.6,190.8,6.8,186.9,8.9z"/>
</svg>