<?xml version="1.0" encoding="UTF-8" standalone="no"?>
<!-- Created with Inkscape (http://www.inkscape.org/) -->

<svg
   version="1.1"
   id="svg2"
   width="1133.8533"
   height="1511.8134"
   viewBox="0 0 1133.8533 1511.8134"
   sodipodi:docname="file.eps"
   xmlns:inkscape="http://www.inkscape.org/namespaces/inkscape"
   xmlns:sodipodi="http://sodipodi.sourceforge.net/DTD/sodipodi-0.dtd"
   xmlns="http://www.w3.org/2000/svg"
   xmlns:svg="http://www.w3.org/2000/svg">
  <defs
     id="defs6" />
  <sodipodi:namedview
     id="namedview4"
     pagecolor="#ffffff"
     bordercolor="#000000"
     borderopacity="0.25"
     inkscape:showpageshadow="2"
     inkscape:pageopacity="0.0"
     inkscape:pagecheckerboard="0"
     inkscape:deskcolor="#d1d1d1" />
  <g
     id="g8"
     inkscape:groupmode="layer"
     inkscape:label="ink_ext_XXXXXX"
     transform="matrix(1.3333333,0,0,-1.3333333,0,1511.8133)">
    <g
       id="g10"
       transform="scale(0.1)">
      <path
         d="m 1470.72,11173 c 11.03,-11 11.03,-28.8 0,-39.9 -11.02,-11 -28.9,-11 -39.91,0 -11.03,11.1 -11.03,28.9 0,39.9 11.01,11.1 28.89,11.1 39.91,0"
         style="fill:#100f0d;fill-opacity:1;fill-rule:nonzero;stroke:none"
         id="path12" />
      <path
         d="m 197.516,9915.8 c 11.023,-11.02 11.023,-28.89 0.004,-39.91 -11.024,-11.02 -28.895,-11.02 -39.911,0 -11.027,11.02 -11.027,28.89 0,39.91 11.016,11.02 28.887,11.02 39.907,0"
         style="fill:#100f0d;fill-opacity:1;fill-rule:nonzero;stroke:none"
         id="path14" />
      <path
         d="m 142.129,10207.1 -3.359,31.6 c -13.211,124.8 3.585,227.1 50.437,306.9 52.766,89.1 139.27,140.1 259.461,152.8 109.371,11.6 202.969,-15.3 280.762,-80.8 77.859,-66.1 122.609,-154.1 134.269,-264 10.133,-95.8 -12.187,-181.4 -66.969,-256.9 C 741.941,10021.2 667.332,9972.41 572.887,9950.3 522.609,9864.9 459.59,9818.18 383.809,9810.14 315.457,9802.89 246.172,9828.69 176,9887.5 l 10.023,11.42 c 69.368,-56.58 133.969,-81.72 193.766,-75.38 37.609,3.98 71.723,17.71 102.371,41.09 30.66,23.43 53.906,52.69 69.774,87.78 -4.266,-3.34 -9.52,-5.34 -15.793,-6.01 -74.629,-7.9 -140.422,12.21 -197.348,60.3 -57.02,48.7 -89.469,110.4 -97.391,185 -0.898,8.5 -1.652,17.1 -2.285,25.7 -0.617,8.5 -1.054,16.8 -1.363,24.9 -2.191,-0.8 -9.91,-4.2 -23.074,-10.3 -1.723,-0.1 -2.457,-1.4 -2.223,-3.6 C 201.809,9997.38 153.73,9877.37 68.3125,9868.32 49.4844,9866.3 33.5,9873.27 20.2813,9889.13 9.66406,9902.43 3.24609,9919.59 1.00781,9940.66 -7.63672,10022.1 39.418,10111 142.129,10207.1 Z m 98.105,52.7 c 22.692,144.7 95.86,223.6 219.461,236.7 56.981,6 106.692,-6.5 149.168,-37.7 41.985,-31.9 65.953,-76 71.93,-132.4 2.656,-25.1 -0.395,-47.9 -9.176,-68.4 l -10.797,4 c 3.942,28.1 5.176,49 3.727,62.7 -5.02,47.3 -25.863,86.5 -62.602,117.8 -36.703,31.2 -79.019,44.3 -126.851,39.2 -55.836,-5.9 -102.832,-29.9 -141.008,-71.9 -33.531,-37 -58.086,-85.1 -73.695,-144.4 9.566,2.2 19.156,4.1 28.773,5.7 9.641,1.6 19.274,2.9 28.957,3.9 68.356,7.2 129.281,-7.6 182.734,-44.6 55.415,-39 86.715,-92.5 93.903,-160.3 3.129,-29.6 -0.883,-62.3 -12.082,-98.03 83.945,23.3 150.691,73.03 200.238,149.13 49.027,75.5 68.918,156.8 59.668,243.9 -10.016,94.6 -49.187,173.4 -117.5,236.5 -71.914,64.3 -154.312,91.6 -247.18,81.8 -100.246,-10.7 -171.554,-63.4 -213.925,-158.4 -27.977,-62.3 -45.77,-155.2 -53.414,-278.7 6.078,2.4 15.98,6.9 29.671,13.5 z m 110.364,-242.3 c 54.082,-42.69 116.14,-60.31 186.199,-52.87 l 23.937,2.51 c 14.09,35.56 19.442,69.16 16.075,101.06 -6.887,65 -36.133,115.4 -87.774,151.5 -49.164,34.5 -107.082,48.2 -173.73,41.2 -21.075,-2.3 -39.598,-6.8 -55.582,-13.7 -3.262,-18.2 -3.684,-38.7 -1.27,-61.5 7.426,-70.1 38.16,-126.1 92.145,-168.2 z M 66.7578,9882.84 c 41.0122,4.33 66.5432,48.82 76.5902,133.36 2.652,23.9 4.062,50 4.242,78.3 0.176,28.2 -0.942,59.2 -3.379,92.9 -86.8594,-88.1 -125.7735,-174.9 -116.7188,-260.35 3.3867,-31.89 16.4805,-46.65 39.2656,-44.21"
         style="fill:#100f0d;fill-opacity:1;fill-rule:nonzero;stroke:none"
         id="path16" />
      <path
         d="m 1405.32,11337.6 c 21.06,-2.2 38.24,-8.7 51.53,-19.3 15.87,-13.2 22.83,-29.2 20.82,-48 -9.05,-85.4 -129.06,-133.5 -360.04,-144.2 -2.29,0.3 -3.51,-0.5 -3.69,-2.2 -6.03,-13.1 -9.44,-20.9 -10.24,-23.1 8.03,-0.3 16.34,-0.7 24.93,-1.3 8.57,-0.7 17.13,-1.4 25.67,-2.3 74.62,-7.9 136.27,-40.4 184.97,-97.4 48.11,-56.9 68.22,-122.7 60.31,-197.3 -0.67,-6.3 -2.67,-11.6 -6,-15.8 35.09,15.8 64.35,39.1 87.76,69.7 23.4,30.7 37.12,64.8 41.1,102.4 6.34,59.8 -18.8,124.4 -75.38,193.8 l 11.43,10 c 58.8,-70.2 84.59,-139.5 77.36,-207.8 -8.04,-75.8 -54.77,-138.8 -140.15,-189.1 -22.13,-94.4 -70.95,-169 -146.45,-223.8 -75.51,-54.8 -161.1,-77.1 -256.82,-67 -109.953,11.7 -197.942,56.4 -264.004,134.3 -65.496,77.8 -92.453,171.4 -80.856,280.7 12.735,120.2 63.68,206.7 152.789,259.5 79.852,46.8 182.157,63.6 306.921,50.4 l 31.62,-3.3 c 96.14,102.7 184.96,149.7 266.42,141.1 z M 1099.68,11128 c -123.512,-7.6 -216.43,-25.4 -278.731,-53.4 -94.926,-42.4 -147.707,-113.7 -158.336,-213.9 -9.84,-92.9 17.446,-175.3 81.821,-247.2 63.035,-68.3 141.836,-107.5 236.414,-117.5 87.152,-9.2 168.462,10.7 243.952,59.7 76.12,49.5 125.81,116.3 149.1,200.2 -35.74,-11.2 -68.44,-15.2 -98.04,-12.1 -67.81,7.2 -121.22,38.5 -160.29,93.9 -36.96,53.5 -51.82,114.4 -44.58,182.8 1.03,9.7 2.33,19.3 3.93,28.9 1.6,9.6 3.47,19.2 5.65,28.8 -59.27,-15.6 -107.379,-40.2 -144.351,-73.7 -42.055,-38.2 -66.051,-85.2 -71.965,-141 -5.078,-47.8 7.996,-90.1 39.258,-126.8 31.261,-36.8 70.523,-57.6 117.818,-62.7 13.67,-1.4 34.53,-0.2 62.61,3.8 l 4.02,-10.8 c -20.5,-8.8 -43.3,-11.8 -68.36,-9.2 -56.401,6 -100.522,30 -132.389,71.9 -31.199,42.5 -43.777,92.2 -37.742,149.2 13.097,123.6 91.984,196.8 236.691,219.5 6.63,13.7 11.15,23.6 13.52,29.6 z m 60.6,-47.9 c -22.8,2.5 -43.3,2 -61.48,-1.2 -6.89,-16 -11.44,-34.5 -13.69,-55.6 -7.06,-66.7 6.69,-124.6 41.21,-173.7 36.01,-51.7 86.49,-80.9 151.43,-87.8 31.89,-3.4 65.59,2 101.08,16.1 l 2.53,23.9 c 7.44,70.1 -10.19,132.1 -52.83,186.2 -42.12,54 -98.18,84.7 -168.25,92.1 z m 258.65,231 c -85.46,9.1 -172.24,-29.9 -260.36,-116.7 33.7,-2.4 64.71,-3.6 92.95,-3.4 28.24,0.2 54.32,1.6 78.22,4.3 84.58,10 129.06,35.5 133.41,76.5 2.43,22.8 -12.32,35.9 -44.22,39.3"
         style="fill:#100f0d;fill-opacity:1;fill-rule:nonzero;stroke:none"
         id="path18" />
      <path
         d="m 682.453,10281 c 11.02,-11 11.02,-28.9 0,-39.9 -11.019,-11 -28.89,-11 -39.918,0 -11.019,11 -11.019,28.9 0,39.9 11.028,11 28.899,11 39.918,0"
         style="fill:#100f0d;fill-opacity:1;fill-rule:nonzero;stroke:none"
         id="path20" />
      <path
         d="m 1105.53,10692.1 c 11.02,-11 11.02,-28.9 -0.01,-39.9 -11.02,-11 -28.89,-11 -39.9,0 -11.03,11 -11.03,28.9 0,39.9 11.01,11 28.88,11 39.91,0"
         style="fill:#100f0d;fill-opacity:1;fill-rule:nonzero;stroke:none"
         id="path22" />
      <path
         d="m 274.289,10954.8 c 4.727,-46.9 17.777,-91.5 45.399,-117.6 26.128,-27.6 70.769,-40.7 117.644,-45.4 60.031,-6.1 121.086,-9.1 155.047,-43 l 1.074,1.1 c -33.91,33.9 -36.941,95 -42.988,155 -4.723,46.9 -17.781,91.5 -45.41,117.7 -26.121,27.6 -70.75,40.6 -117.625,45.4 -60.047,6 -121.098,9 -155.067,43 l -1.078,-1.1 c 33.922,-34 36.953,-95 43.004,-155.1"
         style="fill:#211d1d;fill-opacity:1;fill-rule:nonzero;stroke:none"
         id="path24" />
      <path
         d="m 516.77,10825.5 c -19.692,3.2 -39.997,5.2 -60.059,7.1 l -15.117,1.5 c -43.082,4.3 -75.391,15.8 -91.035,32.3 -0.528,0.6 -1.079,1.1 -1.653,1.7 -16.488,15.6 -27.961,47.9 -32.308,91 l -1.493,15.2 c -1.925,20 -3.894,40.3 -7.136,60 19.715,-3.3 40.015,-5.2 60.105,-7.2 l 15.11,-1.4 c 43.082,-4.4 75.41,-15.9 90.976,-32.3 0.547,-0.6 1.102,-1.2 1.692,-1.7 16.488,-15.6 27.968,-48 32.289,-91 l 1.496,-15.2 c 1.922,-20.1 3.89,-40.3 7.133,-60 v 0"
         style="fill:#ffffff;fill-opacity:1;fill-rule:nonzero;stroke:none"
         id="path26" />
      <path
         d="m 7033.22,11173 c -11.03,-11 -11.03,-28.8 0,-39.9 11.02,-11 28.89,-11 39.91,0 11.03,11.1 11.03,28.9 0,39.9 -11.02,11.1 -28.89,11.1 -39.91,0"
         style="fill:#100f0d;fill-opacity:1;fill-rule:nonzero;stroke:none"
         id="path28" />
      <path
         d="m 8306.43,9915.8 c -11.03,-11.02 -11.03,-28.89 -0.01,-39.91 11.02,-11.02 28.89,-11.02 39.91,0 11.03,11.02 11.03,28.89 0,39.91 -11.02,11.02 -28.89,11.02 -39.9,0"
         style="fill:#100f0d;fill-opacity:1;fill-rule:nonzero;stroke:none"
         id="path30" />
      <path
         d="m 8502.93,9940.66 c -2.23,-21.07 -8.65,-38.23 -19.28,-51.53 -13.22,-15.86 -29.2,-22.83 -48.02,-20.81 -85.42,9.05 -133.5,129.06 -144.15,360.08 0.24,2.2 -0.5,3.5 -2.22,3.6 -13.17,6.1 -20.88,9.5 -23.08,10.3 -0.3,-8.1 -0.75,-16.4 -1.36,-24.9 -0.63,-8.6 -1.38,-17.2 -2.28,-25.7 -7.93,-74.6 -40.37,-136.3 -97.4,-185 -56.92,-48.09 -122.72,-68.2 -197.35,-60.3 -6.27,0.67 -11.52,2.67 -15.79,6.01 15.87,-35.09 39.11,-64.35 69.78,-87.78 30.64,-23.38 64.76,-37.11 102.36,-41.09 59.81,-6.34 124.41,18.8 193.77,75.38 l 10.02,-11.42 c -70.16,-58.81 -139.45,-84.61 -207.8,-77.36 -75.78,8.04 -138.8,54.76 -189.08,140.16 -94.45,22.11 -169.06,70.9 -223.84,146.4 -54.79,75.5 -77.11,161.1 -66.98,256.9 11.66,109.9 56.41,197.9 134.28,264 77.79,65.5 171.39,92.4 280.76,80.8 120.19,-12.7 206.69,-63.7 259.46,-152.8 46.85,-79.8 63.65,-182.1 50.44,-306.9 l -3.36,-31.6 c 102.71,-96.1 149.76,-185 141.12,-266.44 z m -209.55,305.64 c -7.66,123.5 -25.45,216.4 -53.42,278.7 -42.37,95 -113.68,147.7 -213.92,158.4 -92.88,9.8 -175.28,-17.5 -247.19,-81.8 -68.3,-63.1 -107.48,-141.9 -117.5,-236.5 -9.24,-87.1 10.64,-168.4 59.67,-243.9 49.55,-76.1 116.3,-125.83 200.24,-149.13 -11.2,35.73 -15.21,68.43 -12.08,98.03 7.19,67.8 38.49,121.3 93.91,160.3 53.45,37 114.37,51.8 182.73,44.6 9.68,-1 19.32,-2.3 28.95,-3.9 9.62,-1.6 19.21,-3.5 28.78,-5.7 -15.61,59.3 -40.17,107.4 -73.71,144.4 -38.16,42 -85.16,66 -140.99,71.9 -47.83,5.1 -90.16,-8 -126.86,-39.2 -36.74,-31.3 -57.58,-70.5 -62.6,-117.8 -1.45,-13.7 -0.21,-34.6 3.73,-62.7 l -10.8,-4 c -8.78,20.5 -11.83,43.3 -9.18,68.4 5.98,56.4 29.95,100.5 71.94,132.4 42.47,31.2 92.19,43.7 149.16,37.7 123.6,-13.1 196.78,-92 219.46,-236.7 13.69,-6.6 23.6,-11.1 29.68,-13.5 z m -47.89,-60.6 c 2.41,22.8 1.99,43.3 -1.27,61.5 -16,6.9 -34.51,11.4 -55.59,13.7 -66.65,7 -124.57,-6.7 -173.73,-41.2 -51.64,-36.1 -80.88,-86.5 -87.77,-151.5 -3.37,-31.9 1.98,-65.5 16.07,-101.06 l 23.94,-2.51 c 70.06,-7.44 132.12,10.18 186.2,52.87 53.98,42.1 84.72,98.1 92.15,168.2 z m 230.96,-258.65 c 9.05,85.45 -29.87,172.25 -116.72,260.35 -2.44,-33.7 -3.56,-64.7 -3.38,-92.9 0.17,-28.3 1.59,-54.4 4.24,-78.3 10.05,-84.54 35.58,-129.03 76.59,-133.36 22.78,-2.44 35.88,12.32 39.27,44.21"
         style="fill:#100f0d;fill-opacity:1;fill-rule:nonzero;stroke:none"
         id="path32" />
      <path
         d="m 7365.04,11196.5 31.62,3.3 c 124.77,13.2 227.07,-3.6 306.91,-50.4 89.12,-52.8 140.06,-139.3 152.8,-259.5 11.6,-109.3 -15.36,-202.9 -80.86,-280.7 -66.06,-77.9 -154.05,-122.6 -264.01,-134.3 -95.72,-10.1 -181.3,12.2 -256.81,67 -75.51,54.8 -124.32,129.4 -146.45,223.8 -85.39,50.3 -132.11,113.3 -140.15,189.1 -7.23,68.3 18.55,137.6 77.36,207.8 l 11.43,-10 c -56.59,-69.4 -81.72,-134 -75.38,-193.8 3.98,-37.6 17.7,-71.7 41.1,-102.4 23.42,-30.6 52.67,-53.9 87.75,-69.7 -3.32,4.2 -5.33,9.5 -5.99,15.8 -7.91,74.6 12.2,140.4 60.31,197.3 48.69,57 110.35,89.5 184.96,97.4 8.55,0.9 17.11,1.6 25.68,2.3 8.59,0.6 16.9,1 24.92,1.3 -0.8,2.2 -4.21,10 -10.23,23.1 -0.18,1.7 -1.41,2.5 -3.69,2.2 -230.99,10.7 -351,58.8 -360.04,144.2 -2.01,18.8 4.94,34.8 20.82,48 13.28,10.6 30.47,17.1 51.52,19.3 81.47,8.6 170.3,-38.4 266.43,-141.1 z m 52.73,-98.1 c 144.71,-22.7 223.6,-95.9 236.7,-219.5 6.04,-57 -6.54,-106.7 -37.75,-149.2 -31.86,-41.9 -75.98,-65.9 -132.38,-71.9 -25.06,-2.6 -47.86,0.4 -68.36,9.2 l 4.02,10.8 c 28.09,-4 48.95,-5.2 62.61,-3.8 47.29,5.1 86.55,25.9 117.82,62.7 31.25,36.7 44.34,79 39.26,126.8 -5.92,55.8 -29.92,102.8 -71.98,141 -36.97,33.5 -85.07,58.1 -144.35,73.7 2.19,-9.6 4.06,-19.2 5.66,-28.8 1.61,-9.6 2.89,-19.2 3.93,-28.9 7.23,-68.4 -7.62,-129.3 -44.59,-182.8 -39.06,-55.4 -92.48,-86.7 -160.27,-93.9 -29.61,-3.1 -62.31,0.9 -98.05,12.1 23.28,-83.9 72.98,-150.7 149.1,-200.2 75.49,-49 156.8,-68.9 243.95,-59.7 94.58,10 173.37,49.2 236.41,117.5 64.38,71.9 91.66,154.3 81.83,247.2 -10.63,100.2 -63.42,171.5 -158.34,213.9 -62.31,28 -155.22,45.8 -278.73,53.4 2.36,-6 6.89,-15.9 13.51,-29.6 z M 7175.41,10988 c -42.64,-54.1 -60.27,-116.1 -52.83,-186.2 l 2.52,-23.9 c 35.51,-14.1 69.2,-19.5 101.09,-16.1 64.94,6.9 115.41,36.1 151.43,87.8 34.52,49.1 48.26,107 41.21,173.7 -2.25,21.1 -6.81,39.6 -13.69,55.6 -18.19,3.2 -38.68,3.7 -61.49,1.2 -70.06,-7.4 -126.13,-38.1 -168.24,-92.1 z m -134.63,283.8 c 4.36,-41 48.83,-66.5 133.42,-76.5 23.91,-2.7 49.98,-4.1 78.22,-4.3 28.24,-0.2 59.24,1 92.95,3.4 -88.12,86.8 -174.9,125.8 -260.37,116.7 -31.89,-3.4 -46.64,-16.5 -44.22,-39.3"
         style="fill:#100f0d;fill-opacity:1;fill-rule:nonzero;stroke:none"
         id="path34" />
      <path
         d="m 7821.48,10281 c -11.01,-11 -11.01,-28.9 0,-39.9 11.02,-11 28.89,-11 39.93,0 11.01,11 11.01,28.9 0,39.9 -11.04,11 -28.91,11 -39.93,0"
         style="fill:#100f0d;fill-opacity:1;fill-rule:nonzero;stroke:none"
         id="path36" />
      <path
         d="m 7398.41,10692.1 c -11.03,-11 -11.03,-28.9 0.01,-39.9 11.01,-11 28.88,-11 39.9,0 11.04,11 11.04,28.9 0,39.9 -11.02,11 -28.89,11 -39.91,0"
         style="fill:#100f0d;fill-opacity:1;fill-rule:nonzero;stroke:none"
         id="path38" />
      <path
         d="m 8272.66,11109.9 -1.09,1.1 c -33.96,-34 -95.02,-37 -155.07,-43 -46.87,-4.8 -91.5,-17.8 -117.61,-45.4 -27.64,-26.2 -40.69,-70.8 -45.41,-117.7 -6.06,-60 -9.09,-121.1 -42.99,-155 l 1.07,-1.1 c 33.96,33.9 95.01,36.9 155.04,43 46.88,4.7 91.53,17.8 117.65,45.4 27.63,26.1 40.67,70.7 45.4,117.6 6.05,60.1 9.08,121.1 43.01,155.1"
         style="fill:#211d1d;fill-opacity:1;fill-rule:nonzero;stroke:none"
         id="path40" />
      <path
         d="m 7987.16,10825.5 c 3.26,19.7 5.2,40 7.15,60.1 l 1.46,15.1 c 4.36,43 15.84,75.4 32.33,91 0.58,0.5 1.14,1.1 1.69,1.7 15.55,16.4 47.88,27.9 91,32.3 l 14.93,1.4 c 20.14,2 40.49,3.9 60.24,7.2 -3.25,-19.7 -5.19,-39.9 -7.13,-60 l -1.49,-15.2 c -4.35,-43.1 -15.82,-75.4 -32.3,-91 -0.57,-0.6 -1.12,-1.1 -1.66,-1.7 -15.63,-16.5 -47.96,-28 -91.04,-32.3 l -15.07,-1.5 c -20.1,-1.9 -40.4,-3.9 -60.11,-7.1 v 0"
         style="fill:#ffffff;fill-opacity:1;fill-rule:nonzero;stroke:none"
         id="path42" />
      <path
         d="m 1470.72,165.559 c 11.03,11.023 11.03,28.894 0,39.91 -11.02,11.027 -28.9,11.027 -39.91,0 -11.03,-11.016 -11.03,-28.887 0,-39.91 11.01,-11.028 28.89,-11.028 39.91,0"
         style="fill:#100f0d;fill-opacity:1;fill-rule:nonzero;stroke:none"
         id="path44" />
      <path
         d="m 197.516,1422.79 c 11.023,11.03 11.023,28.9 0.004,39.92 -11.024,11.02 -28.895,11.02 -39.911,0 -11.027,-11.02 -11.027,-28.89 0,-39.92 11.016,-11.01 28.887,-11.01 39.907,0"
         style="fill:#100f0d;fill-opacity:1;fill-rule:nonzero;stroke:none"
         id="path46" />
      <path
         d="m 1.00781,1397.93 c 2.23828,21.07 8.65625,38.24 19.27349,51.54 13.2187,15.86 29.2031,22.83 48.0312,20.82 85.4175,-9.06 133.4965,-129.07 144.1445,-360.06 -0.234,-2.27 0.5,-3.49 2.223,-3.67 13.164,-6.03 20.883,-9.44 23.074,-10.24 0.309,8.04 0.746,16.34 1.363,24.93 0.633,8.57 1.387,17.13 2.285,25.66 7.922,74.63 40.371,136.27 97.391,184.98 56.926,48.1 122.719,68.21 197.348,60.31 6.273,-0.68 11.527,-2.67 15.793,-6.01 -15.868,35.09 -39.114,64.35 -69.774,87.77 -30.648,23.39 -64.762,37.11 -102.371,41.1 -59.797,6.33 -124.398,-18.8 -193.766,-75.38 L 176,1451.1 c 70.172,58.81 139.457,84.6 207.809,77.36 75.781,-8.04 138.8,-54.77 189.078,-140.16 94.445,-22.11 169.054,-70.92 223.843,-146.42 54.782,-75.52 77.102,-161.12 66.969,-256.841 C 852.039,875.098 807.289,787.102 729.43,721.035 651.637,655.547 558.039,628.586 448.668,640.188 328.477,652.922 241.973,703.867 189.207,792.969 142.355,872.832 125.559,975.137 138.77,1099.9 l 3.359,31.62 C 39.418,1227.64 -7.63672,1316.46 1.00781,1397.93 Z M 210.563,1092.29 C 218.207,968.781 236,875.859 263.977,813.555 c 42.371,-94.91 113.679,-147.696 213.925,-158.328 92.868,-9.836 175.266,17.449 247.18,81.816 68.313,63.035 107.484,141.836 117.5,236.426 9.25,87.161 -10.641,168.461 -59.668,243.941 -49.547,76.13 -116.293,125.81 -200.238,149.11 11.199,-35.75 15.211,-68.44 12.082,-98.04 -7.188,-67.82 -38.488,-121.23 -93.903,-160.3 -53.453,-36.96 -114.378,-51.81 -182.734,-44.57 -9.683,1.02 -19.316,2.32 -28.957,3.92 -9.617,1.6 -19.207,3.48 -28.773,5.66 15.609,-59.27 40.164,-107.389 73.695,-144.362 38.176,-42.051 85.172,-66.055 141.008,-71.961 47.832,-5.07 90.148,8.008 126.851,39.266 36.739,31.25 57.582,70.508 62.602,117.807 1.449,13.67 0.215,34.53 -3.727,62.62 l 10.797,4.03 c 8.781,-20.52 11.832,-43.3 9.176,-68.38 -5.977,-56.397 -29.945,-100.519 -71.93,-132.374 -42.476,-31.211 -92.187,-43.781 -149.168,-37.746 -123.601,13.086 -196.769,91.973 -219.461,236.68 -13.691,6.63 -23.593,11.15 -29.671,13.52 z m 47.89,60.6 c -2.414,-22.8 -1.992,-43.3 1.27,-61.48 15.984,-6.89 34.507,-11.45 55.582,-13.68 66.648,-7.07 124.566,6.68 173.73,41.22 51.641,36 80.887,86.48 87.774,151.41 3.367,31.9 -1.985,65.59 -16.075,101.1 l -23.937,2.52 c -70.059,7.43 -132.117,-10.19 -186.199,-52.85 -53.985,-42.11 -84.719,-98.16 -92.145,-168.24 z M 27.4922,1411.54 c -9.0547,-85.45 29.8594,-172.24 116.7188,-260.35 2.437,33.7 3.555,64.7 3.379,92.94 -0.18,28.25 -1.59,54.33 -4.242,78.23 -10.047,84.57 -35.578,129.07 -76.5902,133.4 -22.7851,2.44 -35.8789,-12.32 -39.2656,-44.22"
         style="fill:#100f0d;fill-opacity:1;fill-rule:nonzero;stroke:none"
         id="path48" />
      <path
         d="m 1138.9,142.129 -31.62,-3.359 C 982.516,125.559 880.211,142.363 800.359,189.211 711.25,241.973 660.305,328.477 647.57,448.672 c -11.597,109.375 15.36,202.969 80.856,280.762 66.062,77.863 154.051,122.609 264.004,134.269 95.72,10.137 181.31,-12.187 256.82,-66.973 75.5,-54.785 124.32,-129.406 146.45,-223.839 85.38,-50.274 132.11,-113.289 140.15,-189.082 7.23,-68.348 -18.56,-137.637 -77.36,-207.793 l -11.43,10.011 c 56.58,69.364 81.72,133.965 75.38,193.758 -3.98,37.617 -17.7,71.731 -41.1,102.375 -23.41,30.664 -52.67,53.914 -87.76,69.774 3.33,-4.258 5.33,-9.512 6,-15.789 7.91,-74.629 -12.2,-140.422 -60.31,-197.356 -48.7,-57.012 -110.35,-89.473 -184.97,-97.383 -8.54,-0.898 -17.1,-1.66 -25.67,-2.285 -8.59,-0.613 -16.9,-1.055 -24.93,-1.367 0.8,-2.188 4.21,-9.902 10.24,-23.066 0.18,-1.739 1.4,-2.461 3.69,-2.227 230.98,-10.645 350.99,-58.731 360.04,-144.1485 2.01,-18.8203 -4.95,-34.8164 -20.82,-48.0273 C 1443.56,9.66797 1426.38,3.24219 1405.32,1.01563 1323.86,-7.63672 1235.04,39.4258 1138.9,142.129 Z m -52.74,98.105 c -144.707,22.696 -223.594,95.86 -236.691,219.465 -6.035,56.981 6.543,106.707 37.742,149.168 31.867,41.985 75.988,65.957 132.389,71.926 25.06,2.656 47.86,-0.383 68.36,-9.172 l -4.02,-10.801 c -28.08,3.946 -48.94,5.188 -62.61,3.731 -47.295,-5.02 -86.557,-25.867 -117.818,-62.606 -31.262,-36.699 -44.336,-79.015 -39.258,-126.847 5.914,-55.84 29.91,-102.832 71.965,-141.004 36.972,-33.535 85.081,-58.098 144.351,-73.703 -2.18,9.57 -4.05,19.16 -5.65,28.769 -1.6,9.649 -2.9,19.278 -3.93,28.965 -7.24,68.359 7.62,129.289 44.58,182.734 39.07,55.422 92.48,86.719 160.29,93.899 29.6,3.133 62.3,-0.879 98.04,-12.07 -23.29,83.933 -72.98,150.683 -149.1,200.234 C 1149.31,831.945 1068,851.836 980.848,842.59 886.27,832.57 807.469,793.398 744.434,725.09 680.059,653.176 652.773,570.773 662.613,477.91 c 10.629,-100.254 63.41,-171.562 158.336,-213.926 62.301,-27.988 155.219,-45.769 278.731,-53.418 -2.37,6.075 -6.89,15.977 -13.52,29.668 z m 242.37,110.371 c 42.64,54.075 60.27,116.133 52.83,186.211 l -2.53,23.918 c -35.49,14.11 -69.19,19.461 -101.08,16.075 -64.94,-6.875 -115.42,-36.133 -151.43,-87.766 -34.52,-49.168 -48.27,-107.09 -41.21,-173.73 2.25,-21.075 6.8,-39.598 13.69,-55.586 18.18,-3.262 38.68,-3.692 61.48,-1.27 70.07,7.422 126.13,38.164 168.25,92.148 z M 1463.15,66.7578 c -4.35,41.0152 -48.83,66.5432 -133.41,76.5822 -23.9,2.656 -49.98,4.074 -78.22,4.258 -28.24,0.175 -59.25,-0.957 -92.95,-3.379 88.12,-86.8635 174.9,-125.7815 260.36,-116.719 31.9,3.3789 46.65,16.4766 44.22,39.2578"
         style="fill:#100f0d;fill-opacity:1;fill-rule:nonzero;stroke:none"
         id="path50" />
      <path
         d="m 682.453,1057.6 c 11.02,11.03 11.02,28.9 0,39.91 -11.019,11.03 -28.89,11.03 -39.918,0 -11.019,-11.01 -11.019,-28.88 0,-39.91 11.028,-11.02 28.899,-11.02 39.918,0"
         style="fill:#100f0d;fill-opacity:1;fill-rule:nonzero;stroke:none"
         id="path52" />
      <path
         d="m 1105.53,646.504 c 11.02,11.016 11.02,28.887 -0.01,39.914 -11.02,11.016 -28.89,11.016 -39.9,0 -11.03,-11.027 -11.03,-28.898 0,-39.914 11.01,-11.024 28.88,-11.024 39.91,0"
         style="fill:#100f0d;fill-opacity:1;fill-rule:nonzero;stroke:none"
         id="path54" />
      <path
         d="m 231.285,228.723 1.078,-1.086 c 33.969,33.926 95.02,36.953 155.067,42.988 46.875,4.746 91.504,17.793 117.625,45.422 27.629,26.121 40.687,70.769 45.41,117.625 6.047,60.039 9.078,121.105 42.988,155.058 l -1.074,1.075 C 558.418,555.898 497.363,552.852 437.332,546.797 390.457,542.102 345.816,529.043 319.688,501.406 292.066,475.293 279.016,430.664 274.289,383.77 268.238,323.73 265.207,262.695 231.285,228.723"
         style="fill:#211d1d;fill-opacity:1;fill-rule:nonzero;stroke:none"
         id="path56" />
      <path
         d="m 307.965,304.348 c 3.273,19.648 5.219,39.941 7.152,59.988 l 1.492,15.187 c 4.321,43.086 15.793,75.391 32.27,90.965 0.59,0.559 1.16,1.125 1.707,1.719 15.602,16.496 47.91,27.969 90.973,32.266 l 15.136,1.496 c 20.075,1.922 40.387,3.906 60.082,7.148 -3.242,-19.699 -5.195,-40.012 -7.129,-60.09 l -1.488,-15.086 c -4.344,-43.086 -15.84,-75.421 -32.312,-90.996 -0.594,-0.547 -1.164,-1.113 -1.711,-1.711 -15.574,-16.472 -47.891,-27.949 -90.996,-32.312 l -15.047,-1.445 C 348,309.543 327.688,307.59 307.965,304.348 v 0"
         style="fill:#ffffff;fill-opacity:1;fill-rule:nonzero;stroke:none"
         id="path58" />
      <path
         d="m 7033.22,165.559 c -11.03,11.023 -11.03,28.894 0,39.91 11.02,11.027 28.89,11.027 39.91,0 11.03,-11.016 11.03,-28.887 0,-39.91 -11.02,-11.028 -28.89,-11.028 -39.91,0"
         style="fill:#100f0d;fill-opacity:1;fill-rule:nonzero;stroke:none"
         id="path60" />
      <path
         d="m 8306.43,1422.79 c -11.03,11.03 -11.03,28.9 -0.01,39.92 11.02,11.02 28.89,11.02 39.91,0 11.03,-11.02 11.03,-28.89 0,-39.92 -11.02,-11.01 -28.89,-11.01 -39.9,0"
         style="fill:#100f0d;fill-opacity:1;fill-rule:nonzero;stroke:none"
         id="path62" />
      <path
         d="m 8361.81,1131.52 3.36,-31.62 c 13.21,-124.763 -3.59,-227.068 -50.44,-306.931 -52.77,-89.102 -139.27,-140.047 -259.46,-152.781 -109.37,-11.602 -202.97,15.359 -280.76,80.847 -77.87,66.067 -122.62,154.063 -134.28,264.004 -10.13,95.721 12.19,181.321 66.98,256.841 54.78,75.5 129.39,124.31 223.84,146.42 50.28,85.39 113.3,132.12 189.08,140.16 68.35,7.24 137.64,-18.55 207.8,-77.36 l -10.02,-11.42 c -69.36,56.58 -133.96,81.71 -193.77,75.38 -37.6,-3.99 -71.72,-17.71 -102.36,-41.1 -30.67,-23.42 -53.91,-52.68 -69.78,-87.77 4.27,3.34 9.52,5.33 15.79,6.01 74.63,7.9 140.43,-12.21 197.35,-60.31 57.03,-48.71 89.47,-110.35 97.4,-184.98 0.9,-8.53 1.65,-17.09 2.28,-25.66 0.61,-8.59 1.06,-16.89 1.36,-24.93 2.2,0.8 9.91,4.21 23.08,10.24 1.72,0.18 2.46,1.4 2.22,3.67 10.65,230.99 58.73,351 144.15,360.06 18.82,2.01 34.8,-4.96 48.02,-20.82 10.63,-13.3 17.05,-30.47 19.28,-51.54 8.64,-81.47 -38.41,-170.29 -141.12,-266.41 z m -98.11,-52.75 c -22.68,-144.707 -95.86,-223.594 -219.46,-236.68 -56.97,-6.035 -106.69,6.535 -149.16,37.746 -41.99,31.855 -65.96,75.977 -71.94,132.374 -2.65,25.08 0.4,47.86 9.18,68.38 l 10.8,-4.03 c -3.94,-28.09 -5.18,-48.95 -3.73,-62.62 5.02,-47.299 25.86,-86.557 62.6,-117.807 36.7,-31.258 79.03,-44.336 126.86,-39.266 55.83,5.906 102.83,29.91 140.99,71.961 33.54,36.973 58.1,85.092 73.71,144.362 -9.57,-2.18 -19.16,-4.06 -28.78,-5.66 -9.63,-1.6 -19.27,-2.9 -28.95,-3.92 -68.36,-7.24 -129.28,7.61 -182.73,44.57 -55.42,39.07 -86.72,92.48 -93.91,160.3 -3.13,29.6 0.88,62.29 12.08,98.04 -83.94,-23.3 -150.69,-72.98 -200.24,-149.11 -49.03,-75.48 -68.91,-156.78 -59.67,-243.941 10.02,-94.59 49.2,-173.391 117.5,-236.426 71.91,-64.367 154.31,-91.652 247.19,-81.816 100.24,10.632 171.55,63.418 213.92,158.328 27.97,62.304 45.76,155.226 53.42,278.735 -6.08,-2.37 -15.99,-6.89 -29.68,-13.52 z m -110.36,242.36 c -54.08,42.66 -116.14,60.28 -186.2,52.85 l -23.94,-2.52 c -14.09,-35.51 -19.44,-69.2 -16.07,-101.1 6.89,-64.93 36.13,-115.41 87.77,-151.41 49.16,-34.54 107.08,-48.29 173.73,-41.22 21.08,2.23 39.59,6.79 55.59,13.68 3.26,18.18 3.68,38.68 1.27,61.48 -7.43,70.08 -38.17,126.13 -92.15,168.24 z m 283.84,134.63 c -41.01,-4.33 -66.54,-48.83 -76.59,-133.4 -2.65,-23.9 -4.07,-49.98 -4.24,-78.23 -0.18,-28.24 0.94,-59.24 3.38,-92.94 86.85,88.11 125.77,174.9 116.72,260.35 -3.39,31.9 -16.49,46.66 -39.27,44.22"
         style="fill:#100f0d;fill-opacity:1;fill-rule:nonzero;stroke:none"
         id="path64" />
      <path
         d="m 7098.61,1.01563 c -21.05,2.22656 -38.24,8.65234 -51.52,19.26957 -15.88,13.2109 -22.83,29.207 -20.82,48.0273 9.04,85.4175 129.05,133.5035 360.04,144.1485 2.28,-0.234 3.51,0.488 3.69,2.227 6.02,13.164 9.43,20.878 10.23,23.066 -8.02,0.312 -16.33,0.754 -24.92,1.367 -8.57,0.625 -17.13,1.387 -25.68,2.285 -74.61,7.91 -136.27,40.371 -184.96,97.383 -48.11,56.934 -68.22,122.727 -60.31,197.356 0.66,6.277 2.67,11.531 5.99,15.789 -35.08,-15.86 -64.33,-39.11 -87.75,-69.774 -23.4,-30.644 -37.12,-64.758 -41.1,-102.375 -6.34,-59.793 18.79,-124.394 75.38,-193.758 l -11.43,-10.011 c -58.81,70.156 -84.59,139.445 -77.36,207.793 8.04,75.793 54.76,138.808 140.15,189.082 22.13,94.433 70.94,169.054 146.45,223.839 75.51,54.786 161.09,77.11 256.81,66.973 109.96,-11.66 197.95,-56.406 264.01,-134.269 65.5,-77.793 92.46,-171.387 80.86,-280.762 -12.74,-120.195 -63.68,-206.699 -152.8,-259.461 -79.84,-46.848 -182.14,-63.652 -306.91,-50.441 l -31.62,3.359 C 7268.91,39.4258 7180.08,-7.63672 7098.61,1.01563 Z M 7404.26,210.566 c 123.51,7.649 216.42,25.43 278.73,53.418 94.92,42.364 147.71,113.672 158.34,213.926 9.83,92.863 -17.45,175.266 -81.83,247.18 -63.04,68.308 -141.83,107.48 -236.41,117.5 -87.15,9.246 -168.46,-10.645 -243.95,-59.668 -76.12,-49.551 -125.82,-116.301 -149.1,-200.234 35.74,11.191 68.44,15.203 98.05,12.07 67.79,-7.18 121.21,-38.477 160.27,-93.899 36.97,-53.445 51.82,-114.375 44.59,-182.734 -1.04,-9.687 -2.32,-19.316 -3.93,-28.965 -1.6,-9.609 -3.47,-19.199 -5.66,-28.769 59.28,15.605 107.38,40.168 144.35,73.703 42.06,38.172 66.06,85.164 71.98,141.004 5.08,47.832 -8.01,90.148 -39.26,126.847 -31.27,36.739 -70.53,57.586 -117.82,62.606 -13.66,1.457 -34.52,0.215 -62.61,-3.731 l -4.02,10.801 c 20.5,8.789 43.3,11.828 68.36,9.172 56.4,-5.969 100.52,-29.941 132.38,-71.926 31.21,-42.461 43.79,-92.187 37.75,-149.168 -13.1,-123.605 -91.99,-196.769 -236.7,-219.465 -6.62,-13.691 -11.15,-23.593 -13.51,-29.668 z m -60.61,47.891 c 22.81,-2.422 43.3,-1.992 61.49,1.27 6.88,15.988 11.44,34.511 13.69,55.586 7.05,66.64 -6.69,124.562 -41.21,173.73 -36.02,51.633 -86.49,80.891 -151.43,87.766 -31.89,3.386 -65.58,-1.965 -101.09,-16.075 l -2.52,-23.918 c -7.44,-70.078 10.19,-132.136 52.83,-186.211 42.11,-53.984 98.18,-84.726 168.24,-92.148 z M 7085,27.5 c 85.47,-9.0625 172.25,29.8555 260.37,116.719 -33.71,2.422 -64.71,3.554 -92.95,3.379 -28.24,-0.184 -54.31,-1.602 -78.22,-4.258 C 7089.61,133.301 7045.14,107.773 7040.78,66.7578 7038.36,43.9766 7053.11,30.8789 7085,27.5"
         style="fill:#100f0d;fill-opacity:1;fill-rule:nonzero;stroke:none"
         id="path66" />
      <path
         d="m 7821.48,1057.6 c -11.01,11.03 -11.01,28.9 0,39.91 11.02,11.03 28.89,11.03 39.93,0 11.01,-11.01 11.01,-28.88 0,-39.91 -11.04,-11.02 -28.91,-11.02 -39.93,0"
         style="fill:#100f0d;fill-opacity:1;fill-rule:nonzero;stroke:none"
         id="path68" />
      <path
         d="m 7398.41,646.504 c -11.03,11.016 -11.03,28.887 0.01,39.914 11.01,11.016 28.88,11.016 39.9,0 11.04,-11.027 11.04,-28.898 0,-39.914 -11.02,-11.024 -28.89,-11.024 -39.91,0"
         style="fill:#100f0d;fill-opacity:1;fill-rule:nonzero;stroke:none"
         id="path70" />
      <path
         d="m 8229.65,383.77 c -4.73,46.894 -17.77,91.523 -45.4,117.636 -26.12,27.637 -70.77,40.696 -117.65,45.391 -60.03,6.055 -121.08,9.101 -155.04,43.008 l -1.07,-1.075 c 33.9,-33.953 36.93,-95.019 42.99,-155.058 4.72,-46.856 17.77,-91.504 45.41,-117.625 26.11,-27.629 70.74,-40.676 117.61,-45.422 60.05,-6.035 121.11,-9.062 155.07,-42.988 l 1.09,1.086 c -33.93,33.972 -36.96,95.007 -43.01,155.047"
         style="fill:#211d1d;fill-opacity:1;fill-rule:nonzero;stroke:none"
         id="path72" />
      <path
         d="m 8195.96,304.328 c -19.7,3.242 -40.01,5.195 -60.11,7.129 l -15.09,1.484 c -43.06,4.344 -75.4,15.821 -90.99,32.313 -0.55,0.578 -1.11,1.125 -1.67,1.672 -16.52,15.613 -27.99,47.929 -32.32,91.015 l -1.48,15.223 c -1.94,20.031 -3.89,40.293 -7.14,59.953 19.71,-3.242 39.99,-5.226 60.07,-7.148 l 15.09,-1.496 c 43.1,-4.297 75.41,-15.77 91.01,-32.266 0.58,-0.594 1.12,-1.16 1.72,-1.719 16.47,-15.547 27.94,-47.859 32.31,-90.984 l 1.47,-15.188 c 1.93,-20.046 3.88,-40.32 7.13,-59.988 v 0"
         style="fill:#ffffff;fill-opacity:1;fill-rule:nonzero;stroke:none"
         id="path74" />
      <path
         d="m 1457.57,11146 v 17 h 5583.38 v -17 H 1457.57 v 0"
         style="fill:#100f0d;fill-opacity:1;fill-rule:nonzero;stroke:none"
         id="path76" />
      <path
         d="m 8333.55,1449.77 h -16.98 v 8430.82 h 16.98 v -8430.82 0"
         style="fill:#100f0d;fill-opacity:1;fill-rule:nonzero;stroke:none"
         id="path78" />
      <path
         d="M 7044.61,191.543 V 174.551 H 1461.23 v 16.992 h 5583.38 v 0"
         style="fill:#100f0d;fill-opacity:1;fill-rule:nonzero;stroke:none"
         id="path80" />
      <path
         d="m 168.625,9887.75 h 16.98 V 1456.93 h -16.98 v 8430.82 0"
         style="fill:#100f0d;fill-opacity:1;fill-rule:nonzero;stroke:none"
         id="path82" />
    </g>
  </g>
</svg>
